# xmcd CD database file
#
# Track frame offsets:
#	183
#	15713
#	31715
#	43803
#	67788
#	88608
#	104540
#	128155
#
# Disc length: 1952 seconds
#
# Revision: 0
# Processed by: cddbd v1.4PL0 Copyright (c) Steve Scherf et al.
# Submitted via: Feurio! 1.65 - http://www.feurio.com
#
DISCID=5d079e08
DTITLE=Benno, Marc - Take It Back To Texas
DYEAR=1900
DGENRE=
TTITLE0=Black Cadillac
TTITLE1=Easy Travelin' Gal
TTITLE2=Mama's Cookin'
TTITLE3=Take It Back To Texas
TTITLE4=No Problem Child
TTITLE5=Little Miss Rock 'N' Roll
TTITLE6=Mary Played The Pool Hall
TTITLE7=Greatest Find
EXTD=
EXTT0=
EXTT1=
EXTT2=
EXTT3=
EXTT4=
EXTT5=
EXTT6=
EXTT7=
PLAYORDER=
